<!--?xml version="1.0" standalone="no"?-->
              <svg id="sw-js-blob-svg" viewBox="0 0 100 100" xmlns="http://www.w3.org/2000/svg" version="1.1">
                    <defs> 
                        <linearGradient id="sw-gradient" x1="0" x2="1" y1="1" y2="0">
                            <stop id="stop1" stop-color="rgba(73.386, 108.166, 206.12, 1)" offset="0%"></stop>
                            <stop id="stop2" stop-color="rgba(139.325, 168.76, 251.656, 1)" offset="100%"></stop>
                        </linearGradient>
                    </defs>
                <path fill="url(#sw-gradient)" d="M16.2,-23.3C21.9,-21.5,28,-18.6,32.9,-13.4C37.7,-8.3,41.2,-0.9,40.5,6C39.8,13,34.9,19.5,29.1,24C23.3,28.5,16.6,30.9,10.2,31.2C3.9,31.4,-2.1,29.4,-7,26.6C-11.8,23.9,-15.6,20.3,-20.3,16.6C-25.1,12.9,-30.8,9.1,-32.4,4.1C-34,-0.9,-31.3,-7,-27.9,-12C-24.5,-17.1,-20.3,-21,-15.5,-23.2C-10.7,-25.4,-5.4,-25.8,-0.1,-25.7C5.2,-25.7,10.5,-25.1,16.2,-23.3Z" width="100%" height="100%" transform="translate(50 50)" stroke-width="0" style="transition: all 0.3s ease 0s;" stroke="url(#sw-gradient)"></path>
              </svg>