<svg id="visual" viewBox="0 0 960 540" width="960" height="540" xmlns="http://www.w3.org/2000/svg" xmlns:xlink="http://www.w3.org/1999/xlink" version="1.1"><rect x="0" y="0" width="960" height="540" fill="#f7f7f7"></rect><defs><linearGradient id="grad1_0" x1="43.8%" y1="0%" x2="100%" y2="100%"><stop offset="14.444444444444446%" stop-color="#f7f7f7" stop-opacity="1"></stop><stop offset="85.55555555555554%" stop-color="#f7f7f7" stop-opacity="1"></stop></linearGradient></defs><defs><linearGradient id="grad2_0" x1="0%" y1="0%" x2="56.3%" y2="100%"><stop offset="14.444444444444446%" stop-color="#f7f7f7" stop-opacity="1"></stop><stop offset="85.55555555555554%" stop-color="#f7f7f7" stop-opacity="1"></stop></linearGradient></defs><g transform="translate(960, 0)"><path d="M0 270C-20 263.7 -40 257.3 -56.1 245.7C-72.2 234 -84.4 217 -100.7 209C-116.9 201 -137.1 202 -157.7 197.8C-178.4 193.6 -199.4 184.3 -211.1 168.3C-222.8 152.4 -225.1 129.9 -228.8 110.2C-232.6 90.5 -237.6 73.7 -244.7 55.9C-251.8 38 -260.9 19 -270 0L0 0Z" fill="#a7bfff"></path></g><g transform="translate(0, 540)"><path d="M0 -270C18.4 -261.9 36.7 -253.8 57.4 -251.5C78.1 -249.3 101 -252.8 117.1 -243.3C133.3 -233.7 142.6 -211 157.1 -197C171.7 -183 191.5 -177.8 208 -165.8C224.4 -153.9 237.4 -135.3 238.8 -115C240.1 -94.7 229.7 -72.6 233 -53.2C236.3 -33.7 253.1 -16.9 270 0L0 0Z" fill="#a7bfff"></path></g></svg>